<mxfile host="app.diagrams.net" modified="2024-03-20T03:08:47.655Z" agent="Mozilla/5.0 (Macintosh; Intel Mac OS X 10_15_7) AppleWebKit/537.36 (KHTML, like Gecko) Chrome/122.0.0.0 Safari/537.36" etag="c88i11SMeW5gVxLTzV1o" version="24.0.7" type="github">
  <diagram name="第 1 页" id="C5rFHaonQaUm8R1daILY">
    <mxGraphModel dx="1194" dy="692" grid="1" gridSize="10" guides="1" tooltips="1" connect="1" arrows="1" fold="1" page="1" pageScale="1" pageWidth="827" pageHeight="1169" math="0" shadow="0">
      <root>
        <mxCell id="0" />
        <mxCell id="1" parent="0" />
        <mxCell id="0gbHEz_NFwT0j6BnbrYF-4" value="" style="edgeStyle=orthogonalEdgeStyle;rounded=0;orthogonalLoop=1;jettySize=auto;html=1;" edge="1" parent="1" source="0gbHEz_NFwT0j6BnbrYF-2" target="0gbHEz_NFwT0j6BnbrYF-3">
          <mxGeometry relative="1" as="geometry" />
        </mxCell>
        <mxCell id="0gbHEz_NFwT0j6BnbrYF-2" value="渠道+客户号" style="rounded=0;whiteSpace=wrap;html=1;" vertex="1" parent="1">
          <mxGeometry x="320" y="30" width="120" height="60" as="geometry" />
        </mxCell>
        <mxCell id="0gbHEz_NFwT0j6BnbrYF-3" value="CUSTOMER_BASE_INFO_SNAPSHOT&lt;div&gt;查询该表是否存在该客户号&lt;/div&gt;" style="whiteSpace=wrap;html=1;rounded=0;" vertex="1" parent="1">
          <mxGeometry x="30" y="180" width="300" height="80" as="geometry" />
        </mxCell>
      </root>
    </mxGraphModel>
  </diagram>
</mxfile>
